<svg xmlns="http://www.w3.org/2000/svg" width="15.227" height="14.593" viewBox="0 0 15.227 14.593">
  <path id="github_fill" data-name="github fill" d="M7.614.5A7.548,7.548,0,0,0,0,7.982a7.494,7.494,0,0,0,5.206,7.1c.381.07.52-.161.52-.36,0-.178-.006-.648-.01-1.272-2.118.451-2.565-1-2.565-1a1.994,1.994,0,0,0-.847-1.094c-.69-.464.053-.454.053-.454a1.593,1.593,0,0,1,1.166.771,1.639,1.639,0,0,0,2.217.622,1.584,1.584,0,0,1,.482-1c-1.691-.187-3.468-.831-3.468-3.7A2.858,2.858,0,0,1,3.54,5.584,2.618,2.618,0,0,1,3.606,3.6s.638-.2,2.094.767a7.3,7.3,0,0,1,3.807,0C10.954,3.4,11.591,3.6,11.591,3.6a2.69,2.69,0,0,1,.076,1.98,2.87,2.87,0,0,1,.78,2.007c0,2.874-1.78,3.507-3.474,3.691a1.775,1.775,0,0,1,.514,1.384c0,1-.01,1.806-.01,2.049,0,.2.133.43.523.355a7.471,7.471,0,0,0,5.226-7.089A7.549,7.549,0,0,0,7.614.5Z" transform="translate(0 -0.5)" fill="#fff"/>
</svg>
