<svg xmlns="http://www.w3.org/2000/svg" width="86.466" height="86.466" viewBox="0 0 86.466 86.466">
  <g id="github_1_" data-name="github (1)" transform="translate(0)">
    <path id="Path_433" data-name="Path 433" d="M86.466,43.4a43.177,43.177,0,0,1-33.1,41.8L48.2,68.785h-9.93l-5,16.415C14.372,80.64,0,63.668,0,43.4A43.527,43.527,0,0,1,43.233,0,43.527,43.527,0,0,1,86.466,43.4Zm0,0" transform="translate(0 0)" fill="#384949"/>
    <path id="Path_434" data-name="Path 434" d="M299.233,43.4a43.177,43.177,0,0,1-33.1,41.8l-5.168-16.415H256V0a43.527,43.527,0,0,1,43.233,43.4Zm0,0" transform="translate(-212.767 0)" fill="#293939"/>
    <path id="Path_435" data-name="Path 435" d="M111.554,361.726a10.363,10.363,0,0,1-9.183-5.487,7.694,7.694,0,0,0-2.3-2.585,3.442,3.442,0,0,0-2.242-.737l-.445-5.047a8.357,8.357,0,0,1,5.5,1.573,12.717,12.717,0,0,1,3.837,4.207,5.605,5.605,0,0,0,3.251,2.781,7.146,7.146,0,0,0,5-.586l1.994,4.655a13.754,13.754,0,0,1-5.423,1.225Zm0,0" transform="translate(-80.94 -289.098)" fill="#ececf1"/>
    <path id="Path_436" data-name="Path 436" d="M154.166,136.452c-1.774,4.711-6.232,10.69-17.53,12.362,1.469,2.178,3.242,3.344,3.192,7.9v16.415a41.734,41.734,0,0,1-10.133,1.267,40.366,40.366,0,0,1-9.964-1.267V156.515c0-4.509,1.706-5.776,3.023-7.7-11.3-1.672-15.756-7.65-17.53-12.362a19.868,19.868,0,0,1,3.04-19.05c.1-.1.253-.355.2-.507a16.477,16.477,0,0,1,.507-11.1c2.178.658,2.533-.659,9.575,3.647l1.216.71c.507.3.355.1.862.1a34.362,34.362,0,0,1,9.069-1.267,36.092,36.092,0,0,1,9.22,1.267l.355.051a.86.86,0,0,0,.355-.152c8.765-5.32,8.46-3.6,10.841-4.357.051.507,2.381,5.37.456,11.1-.253.76,7.6,7.954,3.243,19.556Zm0,0" transform="translate(-86.462 -87.933)" fill="#ececf1"/>
    <path id="Path_437" data-name="Path 437" d="M280.47,136.452c-1.774,4.711-6.232,10.69-17.53,12.362,1.469,2.178,3.242,3.344,3.192,7.9v16.415A41.735,41.735,0,0,1,256,174.4V108.992a36.1,36.1,0,0,1,9.221,1.267l.354.051a.856.856,0,0,0,.355-.152c8.765-5.32,8.46-3.6,10.842-4.357.051.507,2.381,5.37.456,11.1-.253.76,7.6,7.954,3.243,19.556Zm0,0" transform="translate(-212.766 -87.933)" fill="#e2e2e7"/>
  </g>
</svg>
