<svg xmlns="http://www.w3.org/2000/svg" width="114.577" height="18" viewBox="0 0 114.577 18">
  <g id="Group_424" data-name="Group 424" transform="translate(-128.423 -669)" opacity="0.4">
    <text id="Lagos_Nigeria" data-name="Lagos, Nigeria" transform="translate(149 683)" fill="#fff" font-size="15" font-family="Roboto-Light, Roboto" font-weight="300"><tspan x="0" y="0">Lagos, Nigeria</tspan></text>
    <g id="Placeholder_fill" data-name="Placeholder fill" transform="translate(128.423 671)">
      <g id="Group_423" data-name="Group 423" transform="translate(0.001 0)">
        <path id="Path_357" data-name="Path 357" d="M75.924,0a5.357,5.357,0,0,0-5.351,5.351c0,3.662,4.789,9.038,4.993,9.265a.482.482,0,0,0,.717,0c.2-.227,4.993-5.6,4.993-9.265A5.358,5.358,0,0,0,75.924,0Zm0,8.044a2.692,2.692,0,1,1,2.692-2.692A2.7,2.7,0,0,1,75.924,8.044Z" transform="translate(-70.573)" fill="#fff"/>
      </g>
    </g>
  </g>
</svg>
