<svg id="linkedin" xmlns="http://www.w3.org/2000/svg" width="10.807" height="10.807" viewBox="0 0 10.807 10.807">
  <path id="Path_420" data-name="Path 420" d="M15.471,14.97h0V11.006c0-1.939-.417-3.432-2.684-3.432A2.353,2.353,0,0,0,10.67,8.739h-.032V7.755H8.489V14.97h2.238V11.4c0-.941.178-1.85,1.343-1.85,1.148,0,1.165,1.073,1.165,1.911V14.97Z" transform="translate(-4.667 -4.164)" fill="#fff"/>
  <path id="Path_421" data-name="Path 421" d="M.4,7.977H2.637v7.215H.4Z" transform="translate(-0.218 -4.385)" fill="#fff"/>
  <path id="Path_422" data-name="Path 422" d="M1.3,0A1.3,1.3,0,1,0,2.6,1.3,1.3,1.3,0,0,0,1.3,0Z" fill="#fff"/>
</svg>
