<svg id="python" xmlns="http://www.w3.org/2000/svg" width="86.466" height="86.466" viewBox="0 0 86.466 86.466">
  <path id="Path_431" data-name="Path 431" d="M19.59,49.988A9.3,9.3,0,0,1,28.878,40.7H57.588a4.227,4.227,0,0,0,4.222-4.222V12.666A12.68,12.68,0,0,0,49.144,0H37.322A12.68,12.68,0,0,0,24.656,12.666V19.59H43.233a2.533,2.533,0,1,1,0,5.066H12.666A12.68,12.68,0,0,0,0,37.322V49.144A12.68,12.68,0,0,0,12.666,61.81H19.59ZM37.322,12.835A2.533,2.533,0,1,1,39.856,10.3,2.533,2.533,0,0,1,37.322,12.835Zm0,0" fill="#3e5cbc"/>
  <path id="Path_432" data-name="Path 432" d="M195.144,146H188.22v11.822a9.3,9.3,0,0,1-9.288,9.288H150.222A4.227,4.227,0,0,0,146,171.332v23.812a12.68,12.68,0,0,0,12.666,12.666h11.822a12.68,12.68,0,0,0,12.666-12.666V188.22H164.577a2.533,2.533,0,1,1,0-5.066h30.567a12.68,12.68,0,0,0,12.666-12.666V158.666A12.68,12.68,0,0,0,195.144,146Zm-24.656,48.975a2.533,2.533,0,1,1-2.533,2.533A2.533,2.533,0,0,1,170.488,194.975Zm0,0" transform="translate(-121.344 -121.344)" fill="#f1b512"/>
</svg>
