<svg id="search" xmlns="http://www.w3.org/2000/svg" width="86.466" height="86.466" viewBox="0 0 86.466 86.466">
  <path id="Path_423" data-name="Path 423" d="M19.163,167.17l-3.01,11.236-11,.233a43.309,43.309,0,0,1-.318-40.371h0l9.794,1.8,4.29,9.735a25.8,25.8,0,0,0,.243,17.372Z" transform="translate(0 -114.917)" fill="#fbbb00"/>
  <path id="Path_424" data-name="Path 424" d="M303.155,208.176a43.217,43.217,0,0,1-15.412,41.791l0,0-12.336-.629-1.746-10.9a25.766,25.766,0,0,0,11.086-13.158H261.628v-17.1h41.527Z" transform="translate(-217.444 -173.019)" fill="#518ef8"/>
  <path id="Path_425" data-name="Path 425" d="M95.653,334.1l0,0a43.247,43.247,0,0,1-65.147-13.226l14.01-11.469a25.712,25.712,0,0,0,37.052,13.165Z" transform="translate(-25.357 -257.156)" fill="#28b446"/>
  <path id="Path_426" data-name="Path 426" d="M94.619,9.953,80.613,21.419a25.709,25.709,0,0,0-37.9,13.462L28.626,23.351h0a43.242,43.242,0,0,1,65.995-13.4Z" transform="translate(-23.79)" fill="#f14336"/>
</svg>
