<svg xmlns="http://www.w3.org/2000/svg" width="14.782" height="12.01" viewBox="0 0 14.782 12.01">
  <path id="twitter" d="M13.263,5.245a6.049,6.049,0,0,0,1.519-1.573h0a6.329,6.329,0,0,1-1.746.479,3.014,3.014,0,0,0,1.333-1.675,6.063,6.063,0,0,1-1.922.734A3.03,3.03,0,0,0,7.205,5.281a3.12,3.12,0,0,0,.07.691A8.58,8.58,0,0,1,1.029,2.8a3.03,3.03,0,0,0,.931,4.05A3,3,0,0,1,.591,6.479v.033A3.045,3.045,0,0,0,3.019,9.49a3.013,3.013,0,0,1-.795.1,2.675,2.675,0,0,1-.573-.052,3.06,3.06,0,0,0,2.831,2.111A6.092,6.092,0,0,1,.725,12.942,5.732,5.732,0,0,1,0,12.9a8.534,8.534,0,0,0,4.649,1.36,8.566,8.566,0,0,0,8.614-9.015Z" transform="translate(0 -2.25)" fill="#fff"/>
</svg>
