<svg xmlns="http://www.w3.org/2000/svg" width="594.211" height="384.859" viewBox="0 0 594.211 384.859">
  <g id="undraw_Mobile_wireframe_re_jxui" transform="translate(0.089)" opacity="0.9">
    <path id="Path_376" data-name="Path 376" d="M576.245,370.379H491.693a6.568,6.568,0,0,1-6.56-6.56V313.525a6.567,6.567,0,0,1,6.56-6.56h84.552a6.568,6.568,0,0,1,6.56,6.56v50.294A6.568,6.568,0,0,1,576.245,370.379Zm-84.552-61.956a5.108,5.108,0,0,0-5.1,5.1v50.294a5.108,5.108,0,0,0,5.1,5.1h84.552a5.108,5.108,0,0,0,5.1-5.1V313.525a5.108,5.108,0,0,0-5.1-5.1Z" transform="translate(-228.76 -218.794)" fill="#e6e6e6"/>
    <g id="Group_426" data-name="Group 426" transform="translate(94.151)">
      <path id="Path_358" data-name="Path 358" d="M712.6,374.785H327.854c-11.623-.015-21.043-10.775-21.056-24.054V210.054c.013-13.278,9.432-24.039,21.056-24.054H712.6c11.623.015,21.043,10.775,21.056,24.054V350.731C733.641,364.01,724.222,374.77,712.6,374.785Z" transform="translate(-306.798 -186)" fill="#e6e6e6"/>
      <path id="Path_359" data-name="Path 359" d="M333.477,199c-7,.009-12.671,6.531-12.679,14.578V354.256c.008,8.047,5.68,14.569,12.679,14.578H715.756c7-.009,12.671-6.531,12.679-14.578V213.578c-.008-8.047-5.68-14.569-12.679-14.578Z" transform="translate(-310.52 -189.524)" fill="#fff"/>
      <path id="Path_360" data-name="Path 360" d="M410.5,267.861a15.968,15.968,0,1,1,15.968-15.968h0A15.986,15.986,0,0,1,410.5,267.861Zm0-29.807a13.839,13.839,0,1,0,13.839,13.839h0A13.855,13.855,0,0,0,410.5,238.055Z" transform="translate(-354.996 -199.535)" fill="#ccc"/>
      <path id="Path_361" data-name="Path 361" d="M415.224,252.405h-.03l-1.685.91-.253-1,2.117-1.133h1.119v9.693h-1.268Z" transform="translate(-360.07 -203.672)" fill="#ccc"/>
      <path id="Path_362" data-name="Path 362" d="M385.862,313.711a1.874,1.874,0,1,0-1.808-1.808,1.874,1.874,0,0,0,1.808,1.808Z" transform="translate(-352.153 -219.606)" fill="#e6e6e6"/>
      <path id="Path_363" data-name="Path 363" d="M385.862,329.776a1.874,1.874,0,1,0-1.808-1.808A1.874,1.874,0,0,0,385.862,329.776Z" transform="translate(-352.153 -223.962)" fill="#e6e6e6"/>
      <path id="Path_364" data-name="Path 364" d="M385.862,345.841a1.874,1.874,0,1,0-1.808-1.808A1.874,1.874,0,0,0,385.862,345.841Z" transform="translate(-352.153 -228.317)" fill="#e6e6e6"/>
      <path id="Path_365" data-name="Path 365" d="M434.3,313.2H400.238a1.065,1.065,0,0,1,0-2.129H434.3a1.065,1.065,0,1,1,0,2.129Z" transform="translate(-356.253 -219.908)" fill="#e6e6e6"/>
      <path id="Path_366" data-name="Path 366" d="M434.3,329.268H400.238a1.065,1.065,0,0,1,0-2.129H434.3a1.065,1.065,0,0,1,0,2.129h0Z" transform="translate(-356.252 -224.263)" fill="#e6e6e6"/>
      <path id="Path_367" data-name="Path 367" d="M434.3,345.333H400.238a1.065,1.065,0,0,1,0-2.129H434.3a1.065,1.065,0,0,1,0,2.129h0Z" transform="translate(-356.253 -228.618)" fill="#e6e6e6"/>
      <path id="Path_368" data-name="Path 368" d="M546.194,264.861a15.968,15.968,0,1,1,15.968-15.968A15.968,15.968,0,0,1,546.194,264.861Zm0-29.807a13.839,13.839,0,1,0,13.839,13.839h0a13.855,13.855,0,0,0-13.839-13.839Z" transform="translate(-391.781 -198.722)" fill="#ccc"/>
      <path id="Path_369" data-name="Path 369" d="M548.258,257.924v-.806l1.028-1c2.476-2.356,3.595-3.609,3.609-5.07a1.728,1.728,0,0,0-1.923-1.893,3.3,3.3,0,0,0-2.058.819l-.418-.924a4.256,4.256,0,0,1,2.744-.984,2.728,2.728,0,0,1,2.967,2.818c0,1.789-1.3,3.236-3.34,5.2l-.776.716v.029h4.355v1.089Z" transform="translate(-396.669 -202.824)" fill="#ccc"/>
      <path id="Path_370" data-name="Path 370" d="M576.245,370.379H491.693a6.568,6.568,0,0,1-6.56-6.56V313.525a6.567,6.567,0,0,1,6.56-6.56h84.552a6.568,6.568,0,0,1,6.56,6.56v50.294A6.568,6.568,0,0,1,576.245,370.379Z" transform="translate(-379.556 -218.793)" fill="#fff"/>
      <path id="Path_371" data-name="Path 371" d="M569.789,324.846H512.3a1.065,1.065,0,1,1,0-2.129h57.486a1.065,1.065,0,0,1,0,2.129Z" transform="translate(-386.633 -223.065)" fill="#e6e6e6"/>
      <path id="Path_372" data-name="Path 372" d="M569.789,337.99H512.3a1.065,1.065,0,0,1,0-2.129h57.486a1.065,1.065,0,0,1,0,2.129Z" transform="translate(-386.633 -226.627)" fill="#e6e6e6"/>
      <path id="Path_373" data-name="Path 373" d="M569.789,351.134H512.3a1.065,1.065,0,1,1,0-2.129h57.486a1.065,1.065,0,0,1,0,2.129Z" transform="translate(-386.633 -230.191)" fill="#e6e6e6"/>
      <path id="Path_374" data-name="Path 374" d="M569.789,364.278H512.3a1.065,1.065,0,0,1,0-2.129h57.486a1.065,1.065,0,0,1,0,2.129Z" transform="translate(-386.633 -233.754)" fill="#e6e6e6"/>
      <path id="Path_375" data-name="Path 375" d="M569.789,377.422H512.3a1.065,1.065,0,0,1,0-2.129h57.484a1.065,1.065,0,0,1,0,2.129Z" transform="translate(-386.634 -237.318)" fill="#e6e6e6"/>
      <path id="Path_377" data-name="Path 377" d="M692.966,264.861a15.968,15.968,0,1,1,15.968-15.968A15.968,15.968,0,0,1,692.966,264.861Zm0-29.807A13.839,13.839,0,1,0,706.8,248.893h0a13.855,13.855,0,0,0-13.839-13.839Z" transform="translate(-431.571 -198.722)" fill="#ccc"/>
      <path id="Path_378" data-name="Path 378" d="M695.11,256.308a4.4,4.4,0,0,0,2.147.611c1.686,0,2.208-1.074,2.193-1.879-.015-1.358-1.238-1.939-2.5-1.939h-.732v-.984h.732c.954,0,2.162-.492,2.162-1.64,0-.776-.493-1.462-1.7-1.462a3.546,3.546,0,0,0-1.938.642l-.343-.954a4.6,4.6,0,0,1,2.535-.746c1.909,0,2.774,1.133,2.774,2.312a2.407,2.407,0,0,1-1.79,2.281v.03a2.524,2.524,0,0,1,2.162,2.49c0,1.551-1.208,2.909-3.534,2.909a4.918,4.918,0,0,1-2.52-.657Z" transform="translate(-436.384 -202.797)" fill="#ccc"/>
      <path id="Path_379" data-name="Path 379" d="M665.862,373.3a1.874,1.874,0,1,0-1.808-1.808,1.874,1.874,0,0,0,1.808,1.808Z" transform="translate(-428.062 -235.761)" fill="#e6e6e6"/>
      <path id="Path_380" data-name="Path 380" d="M714.3,372.791H680.238a1.065,1.065,0,1,1,0-2.129H714.3a1.065,1.065,0,0,1,0,2.129h0Z" transform="translate(-432.16 -236.061)" fill="#e6e6e6"/>
      <path id="Path_381" data-name="Path 381" d="M715.777,341.223h-59.77a5.108,5.108,0,0,1-5.1-5.1V312.067a5.108,5.108,0,0,1,5.1-5.1h59.77a5.108,5.108,0,0,1,5.1,5.1v24.054a5.108,5.108,0,0,1-5.1,5.1Zm-59.77-32.8a3.649,3.649,0,0,0-3.645,3.645v24.054a3.649,3.649,0,0,0,3.645,3.645h59.77a3.649,3.649,0,0,0,3.645-3.644V312.067a3.649,3.649,0,0,0-3.644-3.645Z" transform="translate(-424.498 -218.793)" fill="#e6e6e6"/>
      <rect id="Rectangle_508" data-name="Rectangle 508" width="72.713" height="1.458" transform="translate(227.995 119.63) rotate(-24.262)" fill="#e6e6e6"/>
      <rect id="Rectangle_509" data-name="Rectangle 509" width="1.458" height="72.532" transform="translate(228.266 90.707) rotate(-65.351)" fill="#e6e6e6"/>
      <path id="Path_382" data-name="Path 382" d="M795.457,328.643a1.023,1.023,0,0,0-.155-.234h0l-7.984-7.984a1.064,1.064,0,1,0-1.505,1.505l6.167,6.167H764.743a1.065,1.065,0,1,0,0,2.129H791.98l-5.635,5.634a1.064,1.064,0,0,0,1.505,1.505l7.451-7.451h0a1.05,1.05,0,0,0,.155-1.272Z" transform="translate(-455.07 -222.358)" fill="#ccc"/>
      <path id="Path_383" data-name="Path 383" d="M883.705,295.084h-.5V281.417a7.91,7.91,0,0,0-7.91-7.91H846.341a7.91,7.91,0,0,0-7.91,7.91v74.978a7.91,7.91,0,0,0,7.91,7.91H875.3a7.91,7.91,0,0,0,7.91-7.91V304.813h.5Z" transform="translate(-475.336 -209.724)" fill="#3f3d56"/>
      <path id="Path_384" data-name="Path 384" d="M882.334,282.238V357.1a5.907,5.907,0,0,1-5.907,5.907H847.333a5.907,5.907,0,0,1-5.907-5.907V282.238a5.908,5.908,0,0,1,5.907-5.907h3.53a2.808,2.808,0,0,0,2.6,3.866h16.588a2.808,2.808,0,0,0,2.6-3.866h3.779a5.907,5.907,0,0,1,5.907,5.907Z" transform="translate(-476.147 -210.489)" fill="#fff"/>
      <path id="Path_385" data-name="Path 385" d="M374.147,387.514a3.2,3.2,0,0,1-.6-2.745,75.806,75.806,0,0,0,0-35.21,3.2,3.2,0,0,1,.6-2.745,3.147,3.147,0,0,1,2.486-1.2h29.54a3.187,3.187,0,0,1,3.139,2.671,124.083,124.083,0,0,1,0,37.766,3.187,3.187,0,0,1-3.139,2.671H376.633A3.147,3.147,0,0,1,374.147,387.514Z" transform="translate(-349.281 -229.27)" fill="#8eb7c5"/>
      <path id="Path_386" data-name="Path 386" d="M403.92,365.46H388.359a2.189,2.189,0,0,1-2.187-2.187v-.929a2.189,2.189,0,0,1,2.187-2.187H403.92a2.189,2.189,0,0,1,2.187,2.187v.929A2.189,2.189,0,0,1,403.92,365.46Z" transform="translate(-352.728 -233.215)" fill="#fff"/>
      <path id="Path_387" data-name="Path 387" d="M403.92,378.007H388.359a2.189,2.189,0,0,1-2.187-2.187v-.929a2.189,2.189,0,0,1,2.187-2.187H403.92a2.189,2.189,0,0,1,2.187,2.187v.929a2.189,2.189,0,0,1-2.187,2.187Z" transform="translate(-352.728 -236.615)" fill="#fff"/>
      <path id="Path_388" data-name="Path 388" d="M748.7,425.234a122.076,122.076,0,0,1,0-37.156,3.135,3.135,0,0,1,3.088-2.628h29.063a3.1,3.1,0,0,1,2.446,1.185,3.148,3.148,0,0,1,.589,2.7,74.587,74.587,0,0,0,0,34.641,3.147,3.147,0,0,1-.588,2.7,3.1,3.1,0,0,1-2.446,1.185H751.791A3.135,3.135,0,0,1,748.7,425.234Z" transform="translate(-450.625 -240.07)" fill="#8eb7c5"/>
      <path id="Path_389" data-name="Path 389" d="M775.313,409.417H760.062a2.189,2.189,0,0,1-2.187-2.187v-.855a2.189,2.189,0,0,1,2.187-2.187h15.251a2.189,2.189,0,0,1,2.187,2.187v.855A2.189,2.189,0,0,1,775.313,409.417Z" transform="translate(-453.497 -245.151)" fill="#fff"/>
    </g>
    <path id="Path_390" data-name="Path 390" d="M170.106,539.852a122.1,122.1,0,0,1,22.921-29.243,3.136,3.136,0,0,1,4.052-.163l22.874,17.929a3.1,3.1,0,0,1,1.194,2.442,3.148,3.148,0,0,1-1.2,2.488,74.587,74.587,0,0,0-21.37,27.264,3.147,3.147,0,0,1-2.129,1.762,3.1,3.1,0,0,1-2.656-.576l-22.874-17.929A3.136,3.136,0,0,1,170.106,539.852Z" transform="translate(-143.251 -273.777)" fill="#ccc"/>
    <path id="Path_391" data-name="Path 391" d="M208.981,541.939l-12-9.408a2.189,2.189,0,0,1-.372-3.07l.527-.672a2.189,2.189,0,0,1,3.07-.372l12,9.409a2.189,2.189,0,0,1,.372,3.07l-.527.672a2.189,2.189,0,0,1-3.07.372Z" transform="translate(-150.414 -278.703)" fill="#fff"/>
    <path id="Path_392" data-name="Path 392" d="M201.365,551.655l-12-9.408a2.189,2.189,0,0,1-.372-3.07l.527-.673a2.189,2.189,0,0,1,3.07-.372l12,9.408a2.189,2.189,0,0,1,.372,3.07l-.527.672a2.189,2.189,0,0,1-3.07.372Z" transform="translate(-148.35 -281.337)" fill="#fff"/>
    <g id="Group_425" data-name="Group 425" transform="translate(480.551 78.976)">
      <path id="Path_393" data-name="Path 393" d="M1017.7,549.234a122.084,122.084,0,0,1,0-37.156,3.135,3.135,0,0,1,3.088-2.628h29.063a3.1,3.1,0,0,1,2.446,1.185,3.148,3.148,0,0,1,.589,2.7,74.585,74.585,0,0,0,0,34.641,3.149,3.149,0,0,1-.588,2.7,3.1,3.1,0,0,1-2.446,1.185h-29.061A3.136,3.136,0,0,1,1017.7,549.234Z" transform="translate(-939.405 -352.663)" fill="#ccc"/>
      <path id="Path_394" data-name="Path 394" d="M1044.314,533.417h-15.251a2.189,2.189,0,0,1-2.187-2.187v-.855a2.189,2.189,0,0,1,2.187-2.187h15.251a2.189,2.189,0,0,1,2.187,2.187v.854a2.189,2.189,0,0,1-2.187,2.187Z" transform="translate(-942.278 -357.744)" fill="#fff"/>
      <path id="Path_395" data-name="Path 395" d="M1024.284,503.614a7.783,7.783,0,0,0-2.978-10.125,6.822,6.822,0,0,0-1.059-.475l-.6-26.466-10.572,7.784,2.189,23.939a7.725,7.725,0,0,0,3.559,8.468,6.77,6.77,0,0,0,9.459-3.125Z" transform="translate(-937.452 -341.033)" fill="#ffb8b8"/>
      <path id="Path_396" data-name="Path 396" d="M1013.453,467.266l-7.578.457a3.219,3.219,0,0,1-3.281-2.878l-6.292-47.34-10.168-28.876a10.007,10.007,0,0,1,.263-7.388,8.975,8.975,0,0,1,5.144-4.916,8.819,8.819,0,0,1,11.3,5.94l10.341,33.108,3.189,48.35a3.438,3.438,0,0,1-.765,2.425,3.073,3.073,0,0,1-1.322.947A2.951,2.951,0,0,1,1013.453,467.266Z" transform="translate(-931.074 -316.436)" fill="#d0cfde"/>
      <path id="Path_397" data-name="Path 397" d="M824.944,502.08h-8.936l-4.251-34.468h13.189Z" transform="translate(-786.743 -205.745)" fill="#ffb8b8"/>
      <path id="Path_398" data-name="Path 398" d="M955.632,708.477H926.818v-.364A11.215,11.215,0,0,1,938.034,696.9h17.6Z" transform="translate(-915.152 -403.48)" fill="#2f2e41"/>
      <path id="Path_399" data-name="Path 399" d="M860.944,502.08h-8.936l-4.251-34.468h13.189Z" transform="translate(-796.502 -205.745)" fill="#ffb8b8"/>
      <path id="Path_400" data-name="Path 400" d="M991.633,708.477H962.819v-.364A11.215,11.215,0,0,1,974.035,696.9h17.6Z" transform="translate(-924.912 -403.48)" fill="#2f2e41"/>
      <path id="Path_401" data-name="Path 401" d="M987.389,505.183l-2.136,126.605a2.915,2.915,0,0,1-3.179,2.854l-10.457-.951a2.915,2.915,0,0,1-2.643-2.678l-6.122-78.973a.729.729,0,0,0-1.455.029l-3.06,80.781a2.916,2.916,0,0,1-2.914,2.805H944.212a2.915,2.915,0,0,1-2.91-2.738l-7.851-128.464L980.1,492.793Z" transform="translate(-916.95 -348.147)" fill="#2f2e41"/>
      <circle id="Ellipse_173" data-name="Ellipse 173" cx="17.903" cy="17.903" r="17.903" transform="translate(18.7 2.351)" fill="#ffb8b8"/>
      <path id="Path_402" data-name="Path 402" d="M930.439,471.406a3.258,3.258,0,0,1-.995-2.307l-1.208-86.332a20.774,20.774,0,0,1,14.055-20c1.677-7.609,10.6-8.563,15.808-8.449a8.08,8.08,0,0,1,6.544,3.588l3.73,5.6,8.222,4.82a20.794,20.794,0,0,1,9.818,22.462l-1.266,5.758a132.324,132.324,0,0,0,1.237,61.709l2.547,9.712a3.28,3.28,0,0,1-3.424,4.1l-2.958-.228a3.275,3.275,0,0,1-3.012-2.943l-.49-4.9a.364.364,0,0,0-.725,0l-.474,4.74a3.28,3.28,0,0,1-3.213,2.953l-41.861.644h-.052A3.259,3.259,0,0,1,930.439,471.406Z" transform="translate(-915.536 -310.605)" fill="#d0cfde"/>
      <path id="Path_403" data-name="Path 403" d="M953.153,324.921c.073,2.531,1.83,3.995,3.988,5.32a23.067,23.067,0,0,0,7.149,2.455,2.186,2.186,0,0,0,3.211-1.913l2.266-8.618a54.561,54.561,0,0,0,1.744-8.409c.546-5.473-.751-11.361-4.572-15.319s-10.446-5.363-15.024-2.314c-5.433-6.939-30.266,8.392-24.141,13.217,1.09.858,2.756-.228,4.139-.333a4.416,4.416,0,0,1,3.812,1.212c1.148,1.4.648,3.492,1.121,5.241a4.894,4.894,0,0,0,6.184,3.169,16.833,16.833,0,0,0,3.207-2.062,4.125,4.125,0,0,1,3.6-.783c1.575.588,2.134,2.515,2.276,4.189a38.8,38.8,0,0,0,1.044,4.947Z" transform="translate(-915.15 -294.35)" fill="#2f2e41"/>
      <path id="Path_404" data-name="Path 404" d="M817.062,216.118l-2.916,35.716L798.84,289.008l22.6-36.445Z" transform="translate(-783.241 -137.566)" opacity="0.2"/>
      <path id="Path_405" data-name="Path 405" d="M922.833,507.948a7.33,7.33,0,0,0,.232-11.237l9.751-24.153-13.268,2.679-7.226,22.525a7.369,7.369,0,0,0,10.511,10.185Z" transform="translate(-910.813 -342.661)" fill="#ffb8b8"/>
      <path id="Path_406" data-name="Path 406" d="M923.315,468.643l-7.51-2.707a3.3,3.3,0,0,1-2.052-3.95l12.389-45.352,1.889-40.988a9.343,9.343,0,1,1,18.652,1.131l-3.375,44.881-15.786,44.986a3.271,3.271,0,0,1-4.207,2Z" transform="translate(-911.579 -314.009)" fill="#d0cfde"/>
    </g>
    <path id="Path_407" data-name="Path 407" d="M51.358,489.189l8.024,3.933,18.989-29.078-11.842-5.8Z" transform="translate(-13.947 -124.229)" fill="#ffb8b8"/>
    <path id="Path_408" data-name="Path 408" d="M181.791,681.729l15.8,7.746h0a11.215,11.215,0,0,1,5.133,15.007l-.16.327-25.873-12.682Z" transform="translate(-145.142 -320.392)" fill="#2f2e41"/>
    <path id="Path_409" data-name="Path 409" d="M160.451,506.69h8.936l4.251-34.468H160.45Z" transform="translate(-43.522 -128.019)" fill="#ffb8b8"/>
    <path id="Path_410" data-name="Path 410" d="M290.7,697.507h17.6a11.215,11.215,0,0,1,11.215,11.215v.364H290.7Z" transform="translate(-176.049 -324.669)" fill="#2f2e41"/>
    <circle id="Ellipse_174" data-name="Ellipse 174" cx="17.903" cy="17.903" r="17.903" transform="translate(79.832 104.986)" fill="#ffb8b8"/>
    <path id="Path_411" data-name="Path 411" d="M264.038,639.7a3.28,3.28,0,0,1-3.273-3.137l-6.92-92.1a1.094,1.094,0,0,0-2.062-.472L207.516,628.5a3.3,3.3,0,0,1-4.372,1.412l-12.34-6.17a3.286,3.286,0,0,1-1.474-4.385l26.414-53.524,17.5-40.093c6.753-13.3,13.924-20.157,21.923-20.956,8.206-.819,16.969,4.823,26.8,17.251l.08.1,0,.129-1.458,112.511a3.265,3.265,0,0,1-2.974,3.261l-13.245,1.651Q264.2,639.7,264.038,639.7Z" transform="translate(-148.476 -272.401)" fill="#2f2e41"/>
    <path id="Path_412" data-name="Path 412" d="M237.088,511.5a7.83,7.83,0,0,0,1.727-11.882l2.7-71.327-13.12,1.635-1.107,69.391a7.873,7.873,0,0,0,9.8,12.183Z" transform="translate(-158.248 -251.684)" fill="#ffb8b8"/>
    <path id="Path_413" data-name="Path 413" d="M245.245,433.65l-17.619-2a3.511,3.511,0,0,1-3-4.392l4.549-17.084a9.751,9.751,0,1,1,19.37,2.259l.6,17.611a3.511,3.511,0,0,1-3.905,3.607Z" transform="translate(-158.106 -244.436)" fill="#2f2e41"/>
    <path id="Path_414" data-name="Path 414" d="M339.523,381.793a7.669,7.669,0,0,0-.174,1.2l-31.312,18.064-7.611-4.382-8.114,10.622,12.719,9.066a5.831,5.831,0,0,0,7-.17l32.288-25.472a7.651,7.651,0,1,0-4.793-8.923Z" transform="translate(-176.487 -237.479)" fill="#ffb8b8"/>
    <path id="Path_415" data-name="Path 415" d="M301.27,406.075l-10.12,13.116a3.28,3.28,0,0,1-4.959.272l-11.456-11.9a9.109,9.109,0,1,1,11.171-14.392l14.369,8.035a3.28,3.28,0,0,1,1,4.866Z" transform="translate(-170.766 -241.646)" fill="#2f2e41"/>
    <path id="Path_416" data-name="Path 416" d="M300.711,495.66l-19.428-94.632a17.745,17.745,0,0,0-20.3-13.935l-6.479,1.08a17.376,17.376,0,0,0-11.283,7.04h0a24.266,24.266,0,0,0-3.625,20.635l10.724,38.38-7.959,41.119a2.912,2.912,0,0,0,3.27,3.441c3.984-.57,10.552-1.384,18.1-1.827l4.087-15.763,1.662,15.513c9.266-.259,19.325.195,27.623,2.35a2.918,2.918,0,0,0,3.613-3.4Z" transform="translate(-161.952 -240.45)" fill="#8eb7c5"/>
    <path id="Path_417" data-name="Path 417" d="M251.726,328.38c-1.068-6.215-6.058-11.367-12-13.475s-12.645-1.422-18.465,1.005a28.948,28.948,0,0,0-14.549,13.026,15.089,15.089,0,0,1-2.176-1.2c-3.447-2.294-6.243-5.56-9.972-7.359-6.574-3.171-14.522-1.063-20.921,2.449s-12.07,8.364-18.829,11.12-15.382,2.892-20.5-2.312A18.756,18.756,0,0,0,161.8,353.775c7.405-4.511,11.5-13.968,19.8-16.458,4.6-1.378,9.531-.268,14.177.934a56.075,56.075,0,0,0,8.353,1.727,20.621,20.621,0,0,0,5.389,13.766c5.732,6.034,14.728,7.642,23.05,7.545l.174-.177c-2.548-3.814-4.559-9.1-1.754-12.731,2.769-3.582,8.231-3.054,12.472-4.639C249.368,341.534,252.794,334.595,251.726,328.38Z" transform="translate(-133.374 -220.606)" fill="#2f2e41"/>
    <path id="Path_418" data-name="Path 418" d="M292.932,713.458H169.019a.729.729,0,1,1,0-1.458H292.932a.729.729,0,1,1,0,1.458Z" transform="translate(-142.864 -328.599)" fill="#ccc"/>
    <path id="Path_419" data-name="Path 419" d="M995.932,713.458H872.019a.729.729,0,0,1,0-1.458H995.932a.729.729,0,1,1,0,1.458Z" transform="translate(-402.554 -328.599)" fill="#ccc"/>
  </g>
</svg>
