<svg xmlns="http://www.w3.org/2000/svg" width="19.534" height="18.72" viewBox="0 0 19.534 18.72">
  <path id="github_fill" data-name="github fill" d="M9.767.5A9.682,9.682,0,0,0,0,10.1,9.613,9.613,0,0,0,6.678,19.2c.488.09.667-.207.667-.461,0-.228-.008-.832-.012-1.632-2.717.579-3.29-1.288-3.29-1.288a2.558,2.558,0,0,0-1.087-1.4c-.885-.595.068-.583.068-.583a2.043,2.043,0,0,1,1.5.989,2.1,2.1,0,0,0,2.845.8,2.032,2.032,0,0,1,.619-1.284C5.815,14.1,3.536,13.274,3.536,9.6A3.667,3.667,0,0,1,4.541,7.022a3.358,3.358,0,0,1,.085-2.54s.818-.257,2.686.984a9.364,9.364,0,0,1,4.883,0c1.856-1.241,2.674-.984,2.674-.984a3.451,3.451,0,0,1,.1,2.54,3.682,3.682,0,0,1,1,2.575c0,3.687-2.283,4.5-4.456,4.734a2.277,2.277,0,0,1,.659,1.776c0,1.284-.012,2.316-.012,2.628,0,.251.171.552.671.456a9.584,9.584,0,0,0,6.7-9.094A9.684,9.684,0,0,0,9.767.5Z" transform="translate(0 -0.5)" fill="#fff"/>
</svg>
