<svg id="github_1_" data-name="github (1)" xmlns="http://www.w3.org/2000/svg" width="35.935" height="35.935" viewBox="0 0 35.935 35.935">
  <path id="Path_433" data-name="Path 433" d="M35.935,18.038A17.944,17.944,0,0,1,22.179,35.409l-2.148-6.822H15.9l-2.078,6.822A18.007,18.007,0,0,1,0,18.038,18.09,18.09,0,0,1,17.967,0,18.09,18.09,0,0,1,35.935,18.038Zm0,0" transform="translate(0 0)" fill="#384949"/>
  <path id="Path_434" data-name="Path 434" d="M273.968,18.037a17.944,17.944,0,0,1-13.756,17.371l-2.148-6.822H256V0a18.09,18.09,0,0,1,17.968,18.038Zm0,0" transform="translate(-238.032 0)" fill="#293939"/>
  <path id="Path_435" data-name="Path 435" d="M103.274,353.611a4.307,4.307,0,0,1-3.816-2.28,3.2,3.2,0,0,0-.955-1.074,1.431,1.431,0,0,0-.932-.306l-.185-2.1a3.473,3.473,0,0,1,2.288.654,5.285,5.285,0,0,1,1.595,1.749,2.33,2.33,0,0,0,1.351,1.156,2.97,2.97,0,0,0,2.08-.244l.829,1.935A5.716,5.716,0,0,1,103.274,353.611Zm0,0" transform="translate(-90.551 -323.427)" fill="#ececf1"/>
  <path id="Path_436" data-name="Path 436" d="M124.866,118.54c-.737,1.958-2.59,4.443-7.285,5.138.611.905,1.348,1.39,1.326,3.285v6.822a17.344,17.344,0,0,1-4.211.526,16.776,16.776,0,0,1-4.141-.526v-6.906a4.415,4.415,0,0,1,1.256-3.2c-4.7-.695-6.548-3.179-7.285-5.138a8.257,8.257,0,0,1,1.264-7.917c.042-.042.105-.148.084-.211a6.848,6.848,0,0,1,.211-4.611c.905.274,1.053-.274,3.979,1.516l.505.295c.211.126.148.042.358.042a14.28,14.28,0,0,1,3.769-.526,15,15,0,0,1,3.832.526l.148.021a.357.357,0,0,0,.147-.063c3.643-2.211,3.516-1.5,4.506-1.811a7.083,7.083,0,0,1,.19,4.611c-.105.316,3.158,3.306,1.348,8.128Zm0,0" transform="translate(-96.729 -98.375)" fill="#ececf1"/>
  <path id="Path_437" data-name="Path 437" d="M266.169,118.539c-.737,1.958-2.59,4.443-7.285,5.138.611.905,1.348,1.39,1.326,3.285v6.822a17.345,17.345,0,0,1-4.211.526V107.127a15,15,0,0,1,3.832.526l.147.021a.356.356,0,0,0,.147-.063c3.643-2.211,3.516-1.495,4.506-1.811a7.082,7.082,0,0,1,.189,4.611c-.105.316,3.158,3.306,1.348,8.128Zm0,0" transform="translate(-238.032 -98.375)" fill="#e2e2e7"/>
</svg>
