<svg id="linkedin" xmlns="http://www.w3.org/2000/svg" width="13.863" height="13.863" viewBox="0 0 13.863 13.863">
  <path id="Path_420" data-name="Path 420" d="M17.445,17.062h0V11.977c0-2.487-.535-4.4-3.443-4.4a3.019,3.019,0,0,0-2.719,1.494h-.04V7.806H8.489v9.255H11.36V12.478c0-1.207.229-2.373,1.723-2.373,1.472,0,1.494,1.377,1.494,2.451v4.506Z" transform="translate(-3.586 -3.199)" fill="#fff"/>
  <path id="Path_421" data-name="Path 421" d="M.4,7.977H3.27v9.255H.4Z" transform="translate(-0.167 -3.369)" fill="#fff"/>
  <path id="Path_422" data-name="Path 422" d="M1.665,0A1.672,1.672,0,1,0,3.329,1.665,1.665,1.665,0,0,0,1.665,0Z" fill="#fff"/>
</svg>
