<svg id="python" xmlns="http://www.w3.org/2000/svg" width="35.935" height="35.935" viewBox="0 0 35.935 35.935">
  <path id="Path_431" data-name="Path 431" d="M8.142,20.775A3.864,3.864,0,0,1,12,16.915H23.933a1.757,1.757,0,0,0,1.755-1.755v-9.9A5.27,5.27,0,0,0,20.424,0H15.511a5.27,5.27,0,0,0-5.264,5.264V8.142h7.72a1.053,1.053,0,1,1,0,2.106H5.264A5.27,5.27,0,0,0,0,15.511v4.913a5.27,5.27,0,0,0,5.264,5.264H8.142ZM15.511,5.334a1.053,1.053,0,1,1,1.053-1.053A1.053,1.053,0,0,1,15.511,5.334Zm0,0" transform="translate(0 0)" fill="#3e5cbc"/>
  <path id="Path_432" data-name="Path 432" d="M166.424,146h-2.878v4.913a3.864,3.864,0,0,1-3.86,3.86H147.755A1.757,1.757,0,0,0,146,156.528v9.9a5.27,5.27,0,0,0,5.264,5.264h4.913a5.27,5.27,0,0,0,5.264-5.264v-2.878h-7.72a1.053,1.053,0,0,1,0-2.106h12.7a5.27,5.27,0,0,0,5.264-5.264v-4.913A5.27,5.27,0,0,0,166.424,146Zm-10.247,20.354a1.053,1.053,0,1,1-1.053,1.053A1.053,1.053,0,0,1,156.177,166.354Zm0,0" transform="translate(-135.753 -135.753)" fill="#f1b512"/>
</svg>
