<svg id="search" xmlns="http://www.w3.org/2000/svg" width="35.935" height="35.935" viewBox="0 0 35.935 35.935">
  <path id="Path_423" data-name="Path 423" d="M7.964,150.28l-1.251,4.67-4.572.1a18,18,0,0,1-.132-16.778h0l4.07.746,1.783,4.046a10.723,10.723,0,0,0,.1,7.22Z" transform="translate(0 -128.564)" fill="#fbbb00"/>
  <path id="Path_424" data-name="Path 424" d="M278.887,208.176a17.961,17.961,0,0,1-6.405,17.368h0l-5.127-.262-.726-4.529a10.708,10.708,0,0,0,4.607-5.468h-9.608v-7.108h17.259Z" transform="translate(-243.265 -193.565)" fill="#518ef8"/>
  <path id="Path_425" data-name="Path 425" d="M57.583,319.671h0a17.973,17.973,0,0,1-27.075-5.5l5.823-4.766a10.686,10.686,0,0,0,15.4,5.471Z" transform="translate(-28.368 -287.693)" fill="#28b446"/>
  <path id="Path_426" data-name="Path 426" d="M56.051,4.136,50.23,8.9A10.685,10.685,0,0,0,34.478,14.5L28.625,9.7h0A17.971,17.971,0,0,1,56.051,4.136Z" transform="translate(-26.615)" fill="#f14336"/>
</svg>
