<svg xmlns="http://www.w3.org/2000/svg" width="18.962" height="15.406" viewBox="0 0 18.962 15.406">
  <path id="twitter" d="M17.014,6.092a7.76,7.76,0,0,0,1.948-2.018h0a8.119,8.119,0,0,1-2.24.614,3.867,3.867,0,0,0,1.711-2.148,7.778,7.778,0,0,1-2.465.941A3.887,3.887,0,0,0,9.243,6.138a4,4,0,0,0,.09.886A11.006,11.006,0,0,1,1.32,2.958a3.887,3.887,0,0,0,1.195,5.2A3.843,3.843,0,0,1,.758,7.675v.043a3.906,3.906,0,0,0,3.114,3.82,3.866,3.866,0,0,1-1.019.128,3.431,3.431,0,0,1-.736-.066A3.926,3.926,0,0,0,5.75,14.307,7.814,7.814,0,0,1,.93,15.965,7.352,7.352,0,0,1,0,15.912a10.947,10.947,0,0,0,5.964,1.744A10.989,10.989,0,0,0,17.014,6.092Z" transform="translate(0 -2.25)" fill="#fff"/>
</svg>
