<svg xmlns="http://www.w3.org/2000/svg" width="315.724" height="204.488" viewBox="0 0 315.724 204.488">
  <g id="undraw_Mobile_wireframe_re_jxui" transform="translate(0.089)" opacity="0.9">
    <path id="Path_376" data-name="Path 376" d="M533.544,340.659H488.619a3.49,3.49,0,0,1-3.486-3.486V310.451a3.489,3.489,0,0,1,3.486-3.486h44.925a3.489,3.489,0,0,1,3.486,3.486v26.723A3.49,3.49,0,0,1,533.544,340.659Zm-44.925-32.92a2.714,2.714,0,0,0-2.711,2.711v26.723a2.714,2.714,0,0,0,2.711,2.711h44.925a2.714,2.714,0,0,0,2.711-2.711V310.451a2.714,2.714,0,0,0-2.711-2.711Z" transform="translate(-348.955 -260.117)" fill="#e6e6e6"/>
    <g id="Group_426" data-name="Group 426" transform="translate(49.984)">
      <path id="Path_358" data-name="Path 358" d="M522.413,286.308H317.986c-6.176-.008-11.181-5.725-11.188-12.781V198.781c.007-7.055,5.012-12.773,11.188-12.781H522.413c6.176.008,11.181,5.725,11.188,12.781v74.747C533.594,280.582,528.589,286.3,522.413,286.308Z" transform="translate(-306.798 -186)" fill="#e6e6e6"/>
      <path id="Path_359" data-name="Path 359" d="M327.535,199c-3.719,0-6.733,3.47-6.737,7.746v74.747c0,4.276,3.018,7.741,6.737,7.746H530.652c3.719,0,6.733-3.47,6.737-7.746V206.746c0-4.276-3.018-7.741-6.737-7.746Z" transform="translate(-315.337 -193.965)" fill="#fff"/>
      <path id="Path_360" data-name="Path 360" d="M403.019,252.894a8.484,8.484,0,1,1,8.484-8.484h0a8.494,8.494,0,0,1-8.484,8.484Zm0-15.837a7.353,7.353,0,1,0,7.353,7.353h0A7.361,7.361,0,0,0,403.019,237.057Z" transform="translate(-373.526 -216.59)" fill="#ccc"/>
      <path id="Path_361" data-name="Path 361" d="M414.3,251.832h-.016l-.9.483-.134-.531,1.125-.6h.594v5.15H414.3Z" transform="translate(-384.997 -225.938)" fill="#ccc"/>
      <path id="Path_362" data-name="Path 362" d="M385.014,311.955a1,1,0,1,0-.961-.961A1,1,0,0,0,385.014,311.955Z" transform="translate(-367.104 -261.954)" fill="#e6e6e6"/>
      <path id="Path_363" data-name="Path 363" d="M385.014,328.02a1,1,0,1,0-.961-.961A1,1,0,0,0,385.014,328.02Z" transform="translate(-367.104 -271.797)" fill="#e6e6e6"/>
      <path id="Path_364" data-name="Path 364" d="M385.014,344.085a1,1,0,1,0-.961-.961A1,1,0,0,0,385.014,344.085Z" transform="translate(-367.104 -281.64)" fill="#e6e6e6"/>
      <path id="Path_365" data-name="Path 365" d="M417.839,312.206h-18.1a.566.566,0,0,1,0-1.131h18.1a.566.566,0,1,1,0,1.131Z" transform="translate(-376.368 -262.635)" fill="#e6e6e6"/>
      <path id="Path_366" data-name="Path 366" d="M417.838,328.27h-18.1a.566.566,0,1,1,0-1.131h18.1a.566.566,0,1,1,0,1.131h0Z" transform="translate(-376.367 -272.477)" fill="#e6e6e6"/>
      <path id="Path_367" data-name="Path 367" d="M417.839,344.335h-18.1a.566.566,0,0,1,0-1.131h18.1a.566.566,0,0,1,0,1.131h0Z" transform="translate(-376.368 -282.321)" fill="#e6e6e6"/>
      <path id="Path_368" data-name="Path 368" d="M538.711,249.894a8.484,8.484,0,1,1,8.484-8.484A8.484,8.484,0,0,1,538.711,249.894Zm0-15.837a7.353,7.353,0,1,0,7.353,7.353h0a7.362,7.362,0,0,0-7.353-7.353Z" transform="translate(-456.666 -214.752)" fill="#ccc"/>
      <path id="Path_369" data-name="Path 369" d="M548.258,253.3v-.428l.546-.531c1.316-1.252,1.91-1.918,1.918-2.694a.918.918,0,0,0-1.022-1.006,1.755,1.755,0,0,0-1.094.435l-.222-.491a2.261,2.261,0,0,1,1.458-.523,1.449,1.449,0,0,1,1.576,1.5c0,.951-.689,1.72-1.775,2.765l-.412.381v.015h2.314v.579Z" transform="translate(-467.714 -224.023)" fill="#ccc"/>
      <path id="Path_370" data-name="Path 370" d="M533.544,340.659H488.619a3.49,3.49,0,0,1-3.486-3.486V310.451a3.489,3.489,0,0,1,3.486-3.486h44.925a3.489,3.489,0,0,1,3.486,3.486v26.723A3.49,3.49,0,0,1,533.544,340.659Z" transform="translate(-429.036 -260.116)" fill="#fff"/>
      <path id="Path_371" data-name="Path 371" d="M542.348,323.848H511.805a.566.566,0,0,1,0-1.131h30.544a.566.566,0,1,1,0,1.131Z" transform="translate(-445.032 -269.768)" fill="#e6e6e6"/>
      <path id="Path_372" data-name="Path 372" d="M542.348,336.992H511.805a.566.566,0,0,1,0-1.131h30.544a.566.566,0,0,1,0,1.131Z" transform="translate(-445.032 -277.821)" fill="#e6e6e6"/>
      <path id="Path_373" data-name="Path 373" d="M542.348,350.136H511.805a.566.566,0,1,1,0-1.131h30.544a.566.566,0,1,1,0,1.131Z" transform="translate(-445.032 -285.875)" fill="#e6e6e6"/>
      <path id="Path_374" data-name="Path 374" d="M542.348,363.28H511.805a.566.566,0,0,1,0-1.131h30.544a.566.566,0,0,1,0,1.131Z" transform="translate(-445.032 -293.929)" fill="#e6e6e6"/>
      <path id="Path_375" data-name="Path 375" d="M542.349,376.424H511.806a.566.566,0,0,1,0-1.131h30.543a.566.566,0,0,1,0,1.131Z" transform="translate(-445.033 -301.982)" fill="#e6e6e6"/>
      <path id="Path_377" data-name="Path 377" d="M685.483,249.894a8.484,8.484,0,1,1,8.484-8.484A8.484,8.484,0,0,1,685.483,249.894Zm0-15.837a7.353,7.353,0,1,0,7.353,7.353h0a7.362,7.362,0,0,0-7.353-7.353Z" transform="translate(-546.595 -214.752)" fill="#ccc"/>
      <path id="Path_378" data-name="Path 378" d="M694.942,252.394a2.335,2.335,0,0,0,1.141.325c.9,0,1.173-.571,1.165-1-.008-.721-.658-1.03-1.331-1.03h-.389v-.523h.389c.507,0,1.149-.261,1.149-.872,0-.412-.262-.777-.9-.777a1.884,1.884,0,0,0-1.03.341l-.182-.507a2.444,2.444,0,0,1,1.347-.4c1.014,0,1.474.6,1.474,1.228a1.279,1.279,0,0,1-.951,1.212v.016a1.341,1.341,0,0,1,1.149,1.323c0,.824-.642,1.546-1.878,1.546a2.613,2.613,0,0,1-1.339-.349Z" transform="translate(-557.473 -223.962)" fill="#ccc"/>
      <path id="Path_379" data-name="Path 379" d="M665.014,371.542a1,1,0,1,0-.961-.961,1,1,0,0,0,.961.961Z" transform="translate(-538.663 -298.464)" fill="#e6e6e6"/>
      <path id="Path_380" data-name="Path 380" d="M697.839,371.793h-18.1a.566.566,0,1,1,0-1.131h18.1a.566.566,0,0,1,0,1.131h0Z" transform="translate(-547.927 -299.144)" fill="#e6e6e6"/>
      <path id="Path_381" data-name="Path 381" d="M685.374,325.168H653.616a2.714,2.714,0,0,1-2.711-2.711V309.676a2.714,2.714,0,0,1,2.711-2.711h31.758a2.714,2.714,0,0,1,2.711,2.711v12.781a2.714,2.714,0,0,1-2.711,2.711ZM653.616,307.74a1.939,1.939,0,0,0-1.937,1.936v12.781a1.939,1.939,0,0,0,1.937,1.936h31.758a1.939,1.939,0,0,0,1.937-1.936V309.676a1.939,1.939,0,0,0-1.936-1.936Z" transform="translate(-530.607 -260.116)" fill="#e6e6e6"/>
      <rect id="Rectangle_508" data-name="Rectangle 508" width="38.635" height="0.775" transform="translate(121.141 63.563) rotate(-24.262)" fill="#e6e6e6"/>
      <rect id="Rectangle_509" data-name="Rectangle 509" width="0.774" height="38.539" transform="translate(121.285 48.196) rotate(-65.351)" fill="#e6e6e6"/>
      <path id="Path_382" data-name="Path 382" d="M780.564,324.645a.542.542,0,0,0-.082-.124h0l-4.242-4.242a.566.566,0,1,0-.8.8l3.277,3.277H764.244a.566.566,0,0,0,0,1.131h14.472l-2.994,2.994a.566.566,0,1,0,.8.8l3.959-3.959h0a.558.558,0,0,0,.082-.676Z" transform="translate(-599.705 -268.173)" fill="#ccc"/>
      <path id="Path_383" data-name="Path 383" d="M862.487,284.972h-.265V277.71a4.2,4.2,0,0,0-4.2-4.2H842.634a4.2,4.2,0,0,0-4.2,4.2v39.838a4.2,4.2,0,0,0,4.2,4.2h15.385a4.2,4.2,0,0,0,4.2-4.2V290.141h.265Z" transform="translate(-645.506 -239.617)" fill="#3f3d56"/>
      <path id="Path_384" data-name="Path 384" d="M863.162,279.469v39.779a3.139,3.139,0,0,1-3.139,3.139H844.564a3.139,3.139,0,0,1-3.139-3.139V279.469a3.139,3.139,0,0,1,3.139-3.139h1.875a1.492,1.492,0,0,0,1.381,2.054h8.814a1.492,1.492,0,0,0,1.381-2.054h2.008a3.139,3.139,0,0,1,3.139,3.139Z" transform="translate(-647.341 -241.347)" fill="#fff"/>
      <path id="Path_385" data-name="Path 385" d="M373.824,367.875a1.7,1.7,0,0,1-.318-1.459,40.278,40.278,0,0,0,0-18.708,1.7,1.7,0,0,1,.318-1.459,1.672,1.672,0,0,1,1.321-.64h15.7a1.693,1.693,0,0,1,1.668,1.419,65.929,65.929,0,0,1,0,20.067,1.693,1.693,0,0,1-1.668,1.419h-15.7A1.672,1.672,0,0,1,373.824,367.875Z" transform="translate(-360.612 -283.795)" fill="#8eb7c5"/>
      <path id="Path_386" data-name="Path 386" d="M395.6,362.975h-8.268a1.163,1.163,0,0,1-1.162-1.162v-.493a1.163,1.163,0,0,1,1.162-1.162H395.6a1.163,1.163,0,0,1,1.162,1.162v.493A1.163,1.163,0,0,1,395.6,362.975Z" transform="translate(-368.402 -292.709)" fill="#fff"/>
      <path id="Path_387" data-name="Path 387" d="M395.6,375.522h-8.268a1.163,1.163,0,0,1-1.162-1.162v-.493a1.163,1.163,0,0,1,1.162-1.162H395.6a1.163,1.163,0,0,1,1.162,1.162v.493a1.163,1.163,0,0,1-1.162,1.162Z" transform="translate(-368.402 -300.396)" fill="#fff"/>
      <path id="Path_388" data-name="Path 388" d="M748.036,406.589a64.864,64.864,0,0,1,0-19.742,1.666,1.666,0,0,1,1.641-1.4h15.442a1.645,1.645,0,0,1,1.3.63,1.673,1.673,0,0,1,.313,1.435,39.63,39.63,0,0,0,0,18.406,1.672,1.672,0,0,1-.313,1.435,1.644,1.644,0,0,1-1.3.63H749.677A1.666,1.666,0,0,1,748.036,406.589Z" transform="translate(-589.657 -308.205)" fill="#8eb7c5"/>
      <path id="Path_389" data-name="Path 389" d="M767.14,406.966h-8.1a1.163,1.163,0,0,1-1.162-1.162v-.454a1.163,1.163,0,0,1,1.162-1.162h8.1a1.163,1.163,0,0,1,1.162,1.162v.454A1.163,1.163,0,0,1,767.14,406.966Z" transform="translate(-596.149 -319.686)" fill="#fff"/>
    </g>
    <path id="Path_390" data-name="Path 390" d="M169.924,525.759A64.874,64.874,0,0,1,182.1,510.22a1.666,1.666,0,0,1,2.153-.087l12.154,9.526a1.645,1.645,0,0,1,.634,1.3,1.673,1.673,0,0,1-.639,1.322,39.631,39.631,0,0,0-11.355,14.486,1.672,1.672,0,0,1-1.131.936,1.645,1.645,0,0,1-1.411-.306l-12.154-9.526A1.666,1.666,0,0,1,169.924,525.759Z" transform="translate(-155.697 -384.384)" fill="#ccc"/>
    <path id="Path_391" data-name="Path 391" d="M202.963,535.383l-6.378-5a1.163,1.163,0,0,1-.2-1.631l.28-.357a1.163,1.163,0,0,1,1.631-.2l6.378,5a1.163,1.163,0,0,1,.2,1.631l-.28.357A1.163,1.163,0,0,1,202.963,535.383Z" transform="translate(-171.886 -395.517)" fill="#fff"/>
    <path id="Path_392" data-name="Path 392" d="M195.347,545.1l-6.378-5a1.163,1.163,0,0,1-.2-1.631l.28-.357a1.163,1.163,0,0,1,1.631-.2l6.378,5a1.163,1.163,0,0,1,.2,1.631l-.28.357a1.163,1.163,0,0,1-1.631.2Z" transform="translate(-167.22 -401.471)" fill="#fff"/>
    <g id="Group_425" data-name="Group 425" transform="translate(255.291 41.963)">
      <path id="Path_393" data-name="Path 393" d="M1017.035,530.589a64.868,64.868,0,0,1,0-19.742,1.666,1.666,0,0,1,1.641-1.4h15.442a1.645,1.645,0,0,1,1.3.63,1.672,1.672,0,0,1,.313,1.435,39.63,39.63,0,0,0,0,18.406,1.673,1.673,0,0,1-.313,1.435,1.645,1.645,0,0,1-1.3.63h-15.441A1.666,1.666,0,0,1,1017.035,530.589Z" transform="translate(-975.434 -426.144)" fill="#ccc"/>
      <path id="Path_394" data-name="Path 394" d="M1036.142,530.966h-8.1a1.163,1.163,0,0,1-1.162-1.162v-.454a1.163,1.163,0,0,1,1.162-1.162h8.1a1.163,1.163,0,0,1,1.162,1.162v.454A1.163,1.163,0,0,1,1036.142,530.966Z" transform="translate(-981.927 -437.625)" fill="#fff"/>
      <path id="Path_395" data-name="Path 395" d="M1017.157,486.242a4.135,4.135,0,0,0-1.582-5.38,3.623,3.623,0,0,0-.563-.252l-.318-14.062-5.617,4.136,1.163,12.72a4.1,4.1,0,0,0,1.891,4.5,3.6,3.6,0,0,0,5.026-1.66Z" transform="translate(-971.021 -399.857)" fill="#ffb8b8"/>
      <path id="Path_396" data-name="Path 396" d="M1000.376,424.409l-4.026.243a1.71,1.71,0,0,1-1.744-1.529l-3.343-25.153-5.4-15.343A5.317,5.317,0,0,1,986,378.7a4.769,4.769,0,0,1,2.733-2.612,4.686,4.686,0,0,1,6.005,3.156l5.494,17.591,1.694,25.69a1.827,1.827,0,0,1-.406,1.288,1.633,1.633,0,0,1-.7.5A1.568,1.568,0,0,1,1000.376,424.409Z" transform="translate(-956.606 -344.268)" fill="#d0cfde"/>
      <path id="Path_397" data-name="Path 397" d="M818.764,485.925h-4.748l-2.259-18.314h7.008Z" transform="translate(-798.466 -328.473)" fill="#ffb8b8"/>
      <path id="Path_398" data-name="Path 398" d="M942.128,703.049h-15.31v-.194a5.959,5.959,0,0,1,5.959-5.959h9.351Z" transform="translate(-920.62 -540.994)" fill="#2f2e41"/>
      <path id="Path_399" data-name="Path 399" d="M854.764,485.925h-4.748l-2.259-18.314h7.008Z" transform="translate(-820.524 -328.473)" fill="#ffb8b8"/>
      <path id="Path_400" data-name="Path 400" d="M978.129,703.049h-15.31v-.194a5.959,5.959,0,0,1,5.959-5.959h9.351Z" transform="translate(-942.678 -540.994)" fill="#2f2e41"/>
      <path id="Path_401" data-name="Path 401" d="M962.11,499.376l-1.135,67.27a1.549,1.549,0,0,1-1.689,1.517l-5.556-.505a1.549,1.549,0,0,1-1.4-1.423l-3.253-41.961a.387.387,0,0,0-.773.015l-1.626,42.922a1.549,1.549,0,0,1-1.548,1.49h-5.957a1.549,1.549,0,0,1-1.546-1.455l-4.171-68.257,24.786-6.2Z" transform="translate(-924.684 -415.938)" fill="#2f2e41"/>
      <circle id="Ellipse_173" data-name="Ellipse 173" cx="9.512" cy="9.512" r="9.512" transform="translate(9.936 1.249)" fill="#ffb8b8"/>
      <path id="Path_402" data-name="Path 402" d="M929.405,416.526a1.731,1.731,0,0,1-.528-1.226l-.642-45.871A11.038,11.038,0,0,1,935.7,358.8c.891-4.043,5.634-4.55,8.4-4.489a4.293,4.293,0,0,1,3.477,1.907l1.982,2.973,4.369,2.561a11.049,11.049,0,0,1,5.217,11.935l-.673,3.059a70.307,70.307,0,0,0,.657,32.788l1.353,5.16a1.743,1.743,0,0,1-1.82,2.18l-1.572-.121a1.74,1.74,0,0,1-1.6-1.564l-.26-2.6a.194.194,0,0,0-.385,0l-.252,2.518a1.743,1.743,0,0,1-1.707,1.569l-22.242.342h-.028A1.732,1.732,0,0,1,929.405,416.526Z" transform="translate(-921.487 -331.087)" fill="#d0cfde"/>
      <path id="Path_403" data-name="Path 403" d="M940.807,310.594c.039,1.345.972,2.123,2.119,2.827a12.257,12.257,0,0,0,3.8,1.3,1.161,1.161,0,0,0,1.706-1.016l1.2-4.579a28.989,28.989,0,0,0,.927-4.468,10.262,10.262,0,0,0-2.429-8.139c-2.03-2.1-5.55-2.85-7.983-1.23-2.887-3.687-16.082,4.459-12.827,7.023.579.456,1.464-.121,2.2-.177a2.346,2.346,0,0,1,2.025.644c.61.745.344,1.855.6,2.785a2.6,2.6,0,0,0,3.286,1.684,8.944,8.944,0,0,0,1.7-1.1,2.192,2.192,0,0,1,1.911-.416c.837.312,1.134,1.336,1.209,2.226A20.612,20.612,0,0,0,940.807,310.594Z" transform="translate(-920.614 -294.35)" fill="#2f2e41"/>
      <path id="Path_404" data-name="Path 404" d="M808.522,216.118,806.973,235.1l-8.133,19.752,12.006-19.364Z" transform="translate(-790.552 -174.38)" opacity="0.2"/>
      <path id="Path_405" data-name="Path 405" d="M917.2,491.362a3.895,3.895,0,0,0,.123-5.971l5.181-12.833-7.05,1.424-3.84,11.968a3.916,3.916,0,0,0,5.585,5.412Z" transform="translate(-910.813 -403.54)" fill="#ffb8b8"/>
      <path id="Path_406" data-name="Path 406" d="M918.78,420.944l-3.991-1.438a1.752,1.752,0,0,1-1.09-2.1l6.583-24.1,1-21.778a4.964,4.964,0,1,1,9.911.6L929.4,395.979l-8.388,23.9a1.738,1.738,0,0,1-2.235,1.062Z" transform="translate(-912.545 -338.782)" fill="#d0cfde"/>
    </g>
    <path id="Path_407" data-name="Path 407" d="M51.358,474.684l4.264,2.09,10.09-15.45-6.292-3.084Z" transform="translate(-31.522 -280.768)" fill="#ffb8b8"/>
    <path id="Path_408" data-name="Path 408" d="M179.4,681.729l8.4,4.116h0a5.959,5.959,0,0,1,2.728,7.974l-.085.174-13.747-6.738Z" transform="translate(-159.971 -489.739)" fill="#2f2e41"/>
    <path id="Path_409" data-name="Path 409" d="M160.451,490.536H165.2l2.259-18.314H160.45Z" transform="translate(-98.364 -289.335)" fill="#ffb8b8"/>
    <path id="Path_410" data-name="Path 410" d="M290.7,697.506h9.351a5.959,5.959,0,0,1,5.959,5.959v.193H290.7Z" transform="translate(-229.823 -499.405)" fill="#2f2e41"/>
    <circle id="Ellipse_174" data-name="Ellipse 174" cx="9.512" cy="9.512" r="9.512" transform="translate(42.376 55.783)" fill="#ffb8b8"/>
    <path id="Path_411" data-name="Path 411" d="M228.866,576.434a1.743,1.743,0,0,1-1.739-1.667l-3.677-48.938a.581.581,0,0,0-1.1-.251l-23.521,44.9a1.752,1.752,0,0,1-2.323.75l-6.557-3.279a1.746,1.746,0,0,1-.783-2.33l14.035-28.439,9.3-21.3c3.588-7.068,7.4-10.71,11.648-11.135,4.36-.435,9.016,2.563,14.237,9.166l.043.054v.069l-.775,59.781a1.735,1.735,0,0,1-1.58,1.733l-7.038.878Q228.951,576.434,228.866,576.434Z" transform="translate(-167.506 -381.274)" fill="#2f2e41"/>
    <path id="Path_412" data-name="Path 412" d="M231.441,472.5a4.161,4.161,0,0,0,.917-6.313l1.434-37.9-6.971.869-.588,36.87a4.183,4.183,0,0,0,5.208,6.473Z" transform="translate(-189.592 -334.453)" fill="#ffb8b8"/>
    <path id="Path_413" data-name="Path 413" d="M235.527,418.606l-9.362-1.064a1.866,1.866,0,0,1-1.592-2.333l2.417-9.077a5.181,5.181,0,1,1,10.292,1.2l.32,9.357a1.866,1.866,0,0,1-2.075,1.917Z" transform="translate(-189.269 -318.07)" fill="#2f2e41"/>
    <path id="Path_414" data-name="Path 414" d="M317.4,379.026a4.073,4.073,0,0,0-.093.635l-16.637,9.6-4.044-2.328-4.311,5.644,6.758,4.817a3.1,3.1,0,0,0,3.717-.091l17.156-13.534a4.065,4.065,0,1,0-2.547-4.741Z" transform="translate(-230.812 -302.347)" fill="#ffb8b8"/>
    <path id="Path_415" data-name="Path 415" d="M287.182,399.132,281.8,406.1a1.743,1.743,0,0,1-2.635.144l-6.087-6.321a4.84,4.84,0,1,1,5.936-7.647l7.635,4.269a1.743,1.743,0,0,1,.529,2.586Z" transform="translate(-217.882 -311.765)" fill="#2f2e41"/>
    <path id="Path_416" data-name="Path 416" d="M271.649,444.663l-10.323-50.281a9.429,9.429,0,0,0-10.786-7.4l-3.443.574a9.232,9.232,0,0,0-6,3.741h0a12.893,12.893,0,0,0-1.926,10.964l5.7,20.393L240.646,444.5a1.548,1.548,0,0,0,1.738,1.828c2.117-.3,5.607-.735,9.615-.971l2.171-8.375.883,8.242a54.922,54.922,0,0,1,14.677,1.249,1.55,1.55,0,0,0,1.92-1.807Z" transform="translate(-197.963 -309.062)" fill="#8eb7c5"/>
    <path id="Path_417" data-name="Path 417" d="M196.217,321.476a9.685,9.685,0,0,0-6.376-7.16,13.806,13.806,0,0,0-9.811.534,15.381,15.381,0,0,0-7.73,6.921,8.02,8.02,0,0,1-1.156-.637c-1.831-1.219-3.317-2.954-5.3-3.91-3.493-1.685-7.716-.565-11.116,1.3s-6.413,4.444-10,5.909-8.173,1.537-10.892-1.228a9.966,9.966,0,0,0,14.6,11.763c3.935-2.4,6.108-7.422,10.521-8.745,2.442-.732,5.064-.142,7.532.5a29.8,29.8,0,0,0,4.438.918,10.957,10.957,0,0,0,2.863,7.315c3.046,3.206,7.825,4.061,12.247,4.009l.092-.094c-1.354-2.026-2.422-4.836-.932-6.764,1.471-1.9,4.373-1.623,6.627-2.465A7.5,7.5,0,0,0,196.217,321.476Z" transform="translate(-133.374 -264.212)" fill="#2f2e41"/>
    <path id="Path_418" data-name="Path 418" d="M234.516,712.775H168.677a.387.387,0,1,1,0-.775h65.839a.387.387,0,1,1,0,.775Z" transform="translate(-154.822 -508.286)" fill="#ccc"/>
    <path id="Path_419" data-name="Path 419" d="M937.516,712.775H871.677a.387.387,0,1,1,0-.775h65.839a.387.387,0,1,1,0,.775Z" transform="translate(-622.277 -508.286)" fill="#ccc"/>
  </g>
</svg>
